<svg 
 xmlns="http://www.w3.org/2000/svg"
 xmlns:xlink="http://www.w3.org/1999/xlink" viewBox="0 0 210 190">
<path fill-rule="evenodd"  fill="#aab4c3"
 d="M104.953,41.165 C78.675,-20.210 3.981,-2.890 3.489,68.345 C3.217,107.468 33.057,133.425 60.920,152.732 C84.059,167.901 105.108,182.483 105.108,182.483 C105.108,182.483 127.661,167.492 149.080,152.308 C172.501,135.706 206.783,107.042 206.511,67.920 C206.017,-3.492 130.023,-17.762 104.953,41.165 Z"/>
<path fill-rule="evenodd"  stroke="rgb(125, 134, 147)" stroke-width="7px" stroke-linecap="butt" stroke-linejoin="miter" fill="none"
 d="M104.953,41.165 C78.675,-20.210 3.981,-2.890 3.489,68.345 C3.217,107.468 33.057,133.425 60.920,152.732 C84.059,167.901 105.108,182.483 105.108,182.483 C105.108,182.483 127.661,167.492 149.080,152.308 C172.501,135.706 206.783,107.042 206.511,67.920 C206.017,-3.492 130.023,-17.762 104.953,41.165 Z"/>
</svg>
